<?xml version="1.0" encoding="utf-8"?>
<!-- Generator: Adobe Illustrator 23.0.3, SVG Export Plug-In . SVG Version: 6.00 Build 0)  -->
<svg version="1.1" id="Hotel_Overlook" xmlns="http://www.w3.org/2000/svg" xmlns:xlink="http://www.w3.org/1999/xlink" x="0px"
	 y="0px" viewBox="0 0 600 200" style="enable-background:new 0 0 525 200;" xml:space="preserve">
<style type="text/css">
	.st0{font-family:'OpenSans-Light';}
	.st1{font-size:60px;fill:#fff;}
	.st2{fill:#FF0000;}
	.st3{fill:none;stroke:#fff;stroke-miterlimit:10;}
</style>
<text transform="matrix(1 0 0 1 12.561 114.2925)" class="st0 st1">HOTEL OVERLOOK</text>
<polygon class="st2" points="267.71,159.84 278.38,153.32 289.05,159.84 286.14,147.68 295.64,139.54 283.18,138.55 278.38,127 
	273.58,138.55 261.11,139.54 270.61,147.68 "/>
<polygon class="st2" points="306.4,159.84 317.07,153.32 327.74,159.84 324.83,147.68 334.34,139.54 321.87,138.55 317.07,127 
	312.27,138.55 299.81,139.54 309.31,147.68 "/>
<polygon class="st2" points="345.09,159.84 355.77,153.32 366.44,159.84 363.53,147.68 373.03,139.54 360.56,138.55 355.77,127 
	350.97,138.55 338.5,139.54 348,147.68 "/>
<polygon class="st2" points="383.79,159.84 394.46,153.32 405.13,159.84 402.22,147.68 411.72,139.54 399.26,138.55 394.46,127 
	389.66,138.55 377.19,139.54 386.7,147.68 "/>
<polygon class="st2" points="229.01,159.84 239.68,153.32 250.35,159.84 247.45,147.68 256.95,139.54 244.48,138.55 239.68,127 
	234.89,138.55 222.42,139.54 231.92,147.68 "/>
<line class="st3" x1="555" y1="39.5" x2="175.5" y2="39.5"/>
<line class="st3" x1="222.5" y1="144.5" x2="175.5" y2="144.5"/>
<line class="st3" x1="555" y1="144.5" x2="411.5" y2="144.5"/>
</svg>
