<?xml version="1.0" encoding="utf-8"?>
<!-- Generator: Adobe Illustrator 23.0.3, SVG Export Plug-In . SVG Version: 6.00 Build 0)  -->
<svg version="1.1" id="Lag_1" xmlns="http://www.w3.org/2000/svg" xmlns:xlink="http://www.w3.org/1999/xlink" x="0px" y="0px"
	 viewBox="0 0 100 100" style="enable-background:new 0 0 100 100;" xml:space="preserve">
<style type="text/css">
	.st0{fill:#FFFF00;stroke:#999999;stroke-width:0.25;stroke-miterlimit:10;}
</style>
<polygon class="st0" points="28.88,54.84 33.71,51.89 38.53,54.84 37.21,49.34 41.51,45.67 35.87,45.22 33.71,40 31.54,45.22 
	25.9,45.67 30.2,49.34 "/>
<polygon class="st0" points="46.37,54.84 51.19,51.89 56.01,54.84 54.7,49.34 58.99,45.67 53.36,45.22 51.19,40 49.02,45.22 
	43.39,45.67 47.68,49.34 "/>
<polygon class="st0" points="63.85,54.84 68.68,51.89 73.5,54.84 72.18,49.34 76.48,45.67 70.84,45.22 68.68,40 66.51,45.22 
	60.87,45.67 65.17,49.34 "/>
<polygon class="st0" points="81.34,54.84 86.16,51.89 90.98,54.84 89.67,49.34 93.96,45.67 88.33,45.22 86.16,40 83.99,45.22 
	78.36,45.67 82.65,49.34 "/>
<polygon class="st0" points="11.4,54.84 16.22,51.89 21.04,54.84 19.73,49.34 24.02,45.67 18.39,45.22 16.22,40 14.05,45.22 
	8.42,45.67 12.71,49.34 "/>
</svg>
